HIERARCHY
ROOT Hips
{
  OFFSET 0 0 0
  CHANNELS 6 Xposition Yposition Zposition Zrotation Xrotation Yrotation
  JOINT Spine
  {
    OFFSET 0 10 0
    CHANNELS 3 Zrotation Xrotation Yrotation
    JOINT Neck
    {
      OFFSET 0 30.0003 -1.75966e-005
      CHANNELS 3 Zrotation Xrotation Yrotation
      JOINT Head
      {
        OFFSET 0 8.00013 0
        CHANNELS 3 Zrotation Xrotation Yrotation
        End Site
        {
          OFFSET 0 10 0
        }
      }
    }
    JOINT LeftArm
    {
      OFFSET 15 30.0001 0
      CHANNELS 3 Zrotation Xrotation Yrotation
      JOINT LeftForeArm
      {
        OFFSET 25 -4.27227e-005 1.87809e-005
        CHANNELS 3 Zrotation Xrotation Yrotation
        JOINT LeftHand
        {
          OFFSET 25 -1.10557e-005 0
          CHANNELS 3 Zrotation Xrotation Yrotation
          End Site
          {
            OFFSET 10 0 0
          }
        }
      }
    }
    JOINT RightArm
    {
      OFFSET -15 30 0
      CHANNELS 3 Zrotation Xrotation Yrotation
      JOINT RightForeArm
      {
        OFFSET -25 -4.48018e-005 7.42225e-005
        CHANNELS 3 Zrotation Xrotation Yrotation
        JOINT RightHand
        {
          OFFSET -25 -1.91756e-005 0
          CHANNELS 3 Zrotation Xrotation Yrotation
          End Site
          {
            OFFSET -10 0 0
          }
        }
      }
    }
  }
  JOINT LeftUpLeg
  {
    OFFSET 10 -10 0
    CHANNELS 3 Zrotation Xrotation Yrotation
    JOINT LeftLeg
    {
      OFFSET 0.000212294 -35.0001 0.0201078
      CHANNELS 3 Zrotation Xrotation Yrotation
      JOINT LeftToe
      {
        OFFSET 0 -40.0001 0
        CHANNELS 3 Zrotation Xrotation Yrotation
        JOINT LeftToeEnd
        {
          OFFSET 0 0 0
          CHANNELS 3 Zrotation Xrotation Yrotation
          End Site
          {
            OFFSET 0 0 15
          }
        }
      }
    }
  }
  JOINT RightUpLeg
  {
    OFFSET -10 -10 0
    CHANNELS 3 Zrotation Xrotation Yrotation
    JOINT RightLeg
    {
      OFFSET 5.01712e-005 -35 -0.000395552
      CHANNELS 3 Zrotation Xrotation Yrotation
      JOINT RightToe
      {
        OFFSET 0 -40.0001 0
        CHANNELS 3 Zrotation Xrotation Yrotation
        JOINT RightToeEnd
        {
          OFFSET 0 0 0
          CHANNELS 3 Zrotation Xrotation Yrotation
          End Site
          {
            OFFSET 0 0 15
          }
        }
      }
    }
  }
}
MOTION
Frames:	23
Frame Time:	0.0333333
4.09192 147.037 -35.5662 -2.00752 3.5066 4.25422 3.68663 3.65856 -0.617554 -4.02116 -12.1794 -3.49745 11.2738 33.2072 -8.807 -86.8962 17.3468 35.834 25.376 -21.8044 -73.2248 -0.150759 -9.04074 -1.87664 98.623 28.3613 -47.1151 -27.1737 -25.5951 73.4376 1.26651 1.42178 -0.664197 -0.387484 -22.5556 0.495817 3.24483 69.6145 -1.72245 6.65428 15.8488 -12.5003 7.95139e-016 0 1.59028e-015 6.71952 -16.7582 1.42845 -1.32877 63.8501 1.16648 5.23034 13.9695 -10.3683 -3.97569e-016 -3.18055e-015 -1.98785e-016 
3.90182 160.037 -31.9146 -2.47243 2.76777 4.18185 4.10227 4.12262 -0.664887 -3.75626 -11.7332 -3.82916 11.3321 35.2505 -9.97722 -84.991 14.5479 36.3001 24.9491 -21.1892 -70.8686 -0.13382 -9.83615 -2.00287 97.2023 28.2181 -46.6616 -26.8528 -24.9997 71.4916 1.06042 -4.54302 -0.399233 -0.216793 -26.9981 2.02938 4.33103 76.077 -2.96395 4.54178 9.81621 -9.27406 3.97569e-016 -6.36111e-015 -1.98785e-015 7.09958 -21.5151 -0.0826084 -1.31847 69.1827 1.25193 5.20242 7.2211 -12.0789 6.62086e-032 -3.18055e-015 1.19271e-015 
3.68829 170.183 -28.3329 -2.26125 2.06375 3.70787 3.74573 5.01441 -0.208201 -3.70723 -10.991 -3.67274 11.7999 35.8584 -10.2232 -82.7892 13.0182 35.9386 24.0631 -20.023 -66.8153 -0.427818 -8.84723 -1.93171 95.5252 28.3928 -45.05 -26.6675 -23.7836 68.0215 0.958276 -6.15283 -0.343044 -0.353853 -31.0333 3.79573 5.53202 79.9542 -4.39271 2.90925 2.37416 -6.59082 -9.93923e-017 -1.27222e-014 -1.78906e-015 6.39839 -26.8412 -0.975943 -1.44769 73.2089 1.20386 3.24904 1.79278 -9.12212 1.59028e-015 -3.18055e-015 -1.19271e-015 
3.4588 176.613 -24.7183 -1.84484 1.31309 3.04995 3.14649 6.48551 0.236592 -3.59833 -10.9099 -3.26185 11.321 35.865 -9.49513 -81.0326 12.1433 34.7221 23.4697 -18.3058 -62.2253 -0.492331 -8.53485 -2.07083 93.8202 28.691 -42.6334 -26.4786 -22.1371 64.0977 0.863268 -4.45257 -0.359957 -0.937298 -34.5051 4.15601 5.94645 81.2504 -5.14309 1.5134 -4.6569 -3.47079 -1.19271e-015 0 -3.97569e-016 5.63192 -32.0559 -0.558162 -1.55629 75.3969 1.15698 1.67295 -2.441 -5.99029 3.97569e-016 -3.18055e-015 -0 
3.21628 178.265 -21.0014 -2.19409 0.932855 2.5887 3.30589 7.42262 0.779223 -3.95029 -10.8283 -3.1913 11.8425 35.8052 -9.74592 -79.5851 11.8346 33.237 22.6145 -16.3199 -57.6977 -0.540309 -8.53887 -2.16353 92.117 29.1805 -39.5155 -25.9956 -19.777 59.2529 0.814907 -3.36625 -0.26974 -0.924543 -38.122 2.90765 4.83907 80.3909 -4.36131 0.8311 -7.95822 -1.61679 1.98785e-016 -6.36111e-015 7.95139e-016 5.87775 -36.8116 0.336161 -1.41247 75.3242 0.980783 0.791532 -5.86781 -4.03656 1.98785e-016 3.18055e-015 -1.98785e-016 
3.01186 173.024 -17.1152 -1.84828 0.895491 2.14902 2.61895 7.61792 1.16823 -3.87484 -10.9558 -3.04465 11.7802 36.5228 -9.82529 -78.4209 11.8783 31.9943 21.5543 -14.2334 -53.3131 -0.567219 -6.87392 -2.29429 90.7643 30.311 -36.7912 -25.1591 -17.3572 54.7056 0.781175 -4.37241 -0.221315 -1.67555 -40.8699 1.27295 2.98927 76.5982 -2.80134 0.871269 -10.6035 -2.16393 -2.48481e-017 -3.18055e-015 9.93923e-017 4.43609 -40.3966 0.124213 -0.967241 72.7087 0.58686 0.427322 -6.16322 -2.77893 -2.98177e-016 -3.18055e-015 2.98177e-016 
2.77242 161.064 -13.2809 -1.93996 0.780214 1.63869 2.32422 8.14156 1.66393 -4.30729 -11.2363 -3.00343 12.2545 36.5929 -10.0001 -77.6863 12.1353 30.3299 20.2553 -12.3413 -49.2846 -0.701412 -5.10074 -2.23739 89.5177 31.2724 -33.9898 -24.1797 -15.1948 50.7149 0.808739 -4.84139 -0.248495 -1.35065 -41.9194 0.0508999 1.47571 70.1847 -1.54991 0.815244 -9.08272 -2.84284 -7.95139e-016 0 1.98785e-016 3.61041 -41.8519 -0.289236 -0.47338 67.1666 0.218429 0.716707 -4.92978 -3.82066 1.98785e-016 -3.18055e-015 -0 
2.4581 144.803 -9.36969 -1.91259 0.410717 1.35587 1.69263 8.44966 2.02569 -4.33932 -11.1167 -2.90868 12.5125 36.3855 -10.002 -77.4747 12.4875 28.8669 19.4414 -11.0508 -46.563 -0.673972 -4.0279 -2.38086 88.7668 31.9238 -31.6887 -23.2353 -13.7337 47.8919 0.655355 -5.05609 -0.221071 -0.963869 -41.0973 -1.28185 0.56027 61.8051 -0.910876 0.254864 -5.24278 -1.89809 -1.98785e-016 -3.18055e-015 -0 2.5335 -40.8451 -1.40298 -0.137632 59.6097 0.0240337 1.83758 -1.94221 -7.63228 -0 0 3.18055e-015 
2.15237 126.471 -5.37562 -1.5846 -0.416335 0.972711 0.621187 8.79932 2.63356 -4.96421 -10.6623 -3.10222 14.2497 36.0913 -11.0104 -77.5971 12.7011 27.7108 18.7651 -10.2235 -44.6696 -0.73591 -4.1863 -2.33311 88.7215 32.1973 -29.9764 -22.4864 -12.6378 45.727 0.601082 -3.06959 -0.238898 -0.382404 -38.247 -1.51409 0.111465 52.4149 -0.536894 0.310486 0.176187 -2.70579 1.98785e-016 -1.59028e-015 -1.59028e-015 1.62252 -37.735 -2.11253 -0.00946205 50.6581 -0.176224 1.98262 3.02069 -7.46638 3.97569e-016 3.18055e-015 3.18055e-015 
1.83877 108.242 -1.5757 -2.47546 -2.00485 1.04263 0.908657 9.76846 2.95764 -4.71019 -11.7072 -3.04077 14.2503 36.3939 -11.0787 -78.38 13.1681 26.8502 18.5449 -9.89808 -43.8817 -0.76316 -5.16783 -2.33451 88.8558 32.5514 -28.663 -22.2017 -12.2402 44.8853 0.558917 -1.92273 -0.274238 0.864276 -33.8032 -3.34588 -0.0603367 44.0923 -0.449513 0.00352607 2.34744 -2.31346 4.41391e-032 -1.59028e-015 1.59028e-015 2.82572 -32.6189 -1.37442 0.036274 41.4955 -0.366852 1.13132 9.97104 -4.09746 1.98785e-016 -9.54166e-015 1.59028e-015 
1.55485 92.3604 2.01682 -3.75045 -4.62791 0.98958 1.64724 11.5557 3.17744 -5.01655 -12.1846 -3.172 14.8823 34.3224 -11.1754 -79.3592 12.9964 25.3657 18.2517 -9.52327 -42.914 -0.752652 -6.76945 -2.341 89.3407 33.0864 -27.6219 -22.3001 -12.3098 44.9648 0.60559 -1.00119 -0.305532 2.87291 -29.8228 -2.95774 0.0125763 41.0547 -0.43014 0.724961 5.21062 -4.82002 2.20695e-032 -1.59028e-015 7.95139e-016 4.43868 -27.2345 -1.65538 0.0940297 37.5505 -0.322753 -1.0041 7.47163 1.31688 4.96962e-017 0 -0 
1.3935 82.4587 4.42674 -4.69217 -7.7097 2.01349 2.53453 14.4404 2.34449 -5.50906 -12.8346 -3.73975 15.1852 30.572 -10.9171 -81.0876 12.1212 22.5259 17.966 -9.02821 -41.6502 -0.785659 -7.59605 -2.36481 89.5485 32.3749 -24.8704 -22.2725 -12.1912 44.6024 0.605385 0.993648 -0.324984 3.41717 -29.9115 -2.08483 0.176046 51.0701 -0.631991 -0.00875976 -13.8161 -5.38405 3.10601e-018 4.96962e-017 -0 6.11709 -25.6059 -2.02237 0.144716 47.2168 -0.0816267 -1.43807 -13.57 1.0751 8.69683e-017 1.98785e-016 -0 
0.796582 78.5804 6.33165 -3.01925 -7.59751 3.0624 -0.453993 15.0732 1.72439 -5.35922 -15.8267 -4.56824 15.9872 29.7358 -11.1886 -80.7826 7.78344 14.6269 15.7474 -6.43701 -35.0967 -0.934347 -8.00755 -2.37912 89.4029 30.0768 -17.1745 -20.4397 -9.55884 39.0794 0.824741 0.752731 -0.371738 1.14523 -35.9747 -2.57871 -0.0518525 63.0738 -0.293491 0.6878 -19.6296 -2.88374 -4.7394e-023 -3.03321e-021 -3.97569e-016 6.05826 -32.0242 -0.659075 0.823746 60.5729 -0.923633 -3.53556 -21.0136 -5.56668 3.88251e-019 0 -1.98785e-016 
0.67116 76.4936 8.14699 -4.23419 -10.1148 2.72614 1.19764 17.1205 1.86419 -6.56048 -15.5757 -4.77763 16.7412 28.3263 -11.6077 -83.2479 -3.80816 5.73104 11.7798 -3.08623 -24.8136 -1.0559 -2.30132 -2.07536 89.0814 20.1032 -8.96529 -16.8544 -5.80825 30.0203 0.963861 3.30182 -0.343849 4.56905 -35.7989 0.404552 0.062406 70.2197 -0.23528 0.596303 -24.6738 -3.65811 0 0 -9.93923e-017 7.84038 -31.5661 -0.98755 1.00319 67.1907 -1.0261 -4.59133 -24.66 -7.89834 1.86361e-017 0 -3.97569e-016 
0.617345 76.1128 9.87278 -2.95525 -10.3279 3.91425 -0.0712334 16.2599 1.5425 -6.55256 -15.9991 -5.21324 16.9313 29.155 -12.3232 -87.2833 -5.27508 1.30151 11.0949 -2.20344 -22.1581 -1.12749 -5.37471 -2.86801 91.5479 10.7392 -5.18166 -14.2233 -3.70281 23.8021 1.08681 5.69538 -0.290294 4.4861 -34.7145 2.20322 0.325739 71.4153 -0.222775 0.675325 -27.1471 -5.39612 -1.55301e-018 -9.93923e-017 9.93923e-017 4.52431 -30.6219 -4.61414 0.994769 68.992 -1.00141 -4.74321 -27.4474 -7.0621 -2.48481e-017 -5.96354e-016 -7.95139e-016 
0.615204 76.8722 11.5562 -3.56149 -9.44326 3.16089 0.571512 13.7463 2.23828 -6.50085 -16.0474 -5.20468 16.7652 29.1605 -12.8667 -90.2414 0.448522 0.970772 11.5282 -2.63932 -23.0137 -1.10346 -4.57326 -2.34654 93.394 9.00245 -4.95699 -13.0549 -3.01541 21.311 0.994734 7.67206 -0.481128 6.39517 -33.2601 4.17086 0.477948 70.0937 -0.309864 0.345774 -28.173 -6.14843 -3.10601e-018 0 1.98785e-016 4.94069 -28.9896 -5.25092 0.697132 66.7908 -0.729406 -4.73297 -27.8676 -6.37153 4.13804e-033 2.98177e-016 -7.95139e-016 
0.709463 78.6171 13.1556 -2.86432 -8.97004 2.36942 0.0690674 11.8859 3.00842 -6.64286 -16.2707 -5.13491 17.0823 29.3264 -13.105 -92.5777 9.91384 3.11902 14.0563 -4.16741 -28.3835 -1.05755 -5.67598 -2.89071 95.0887 8.21715 -6.20528 -13.4697 -3.2919 22.1997 0.915602 12.8819 -0.566118 4.89952 -29.3001 3.67774 0.794824 65.241 -0.716298 0.357074 -27.6112 -4.87417 -1.55301e-018 9.93923e-017 -2.98177e-016 5.01519 -25.5685 -3.71658 0.262282 62.3683 -0.215135 -4.55888 -27.3078 -6.28988 6.21202e-018 -1.98785e-016 -7.95139e-016 
0.809979 80.567 14.4563 -2.84088 -8.09376 1.96945 0.65514 9.72686 3.07177 -6.6627 -16.0587 -4.87973 16.424 28.6947 -12.5298 -94.0947 11.0781 2.82872 14.4177 -4.54514 -29.2051 -0.944114 -8.00632 -2.80339 95.6976 5.80791 -6.46516 -13.5631 -3.27617 22.2493 1.05167 13.2429 -0.460496 3.22775 -25.7024 1.29205 0.86859 59.5942 -0.985179 0.365622 -26.256 -2.60694 -3.88251e-019 0 -0 5.74394 -22.0582 -2.21659 -0.0449152 56.4316 0.141429 -4.49276 -25.8136 -6.45903 -6.21202e-018 -9.93923e-017 -0 
0.93947 82.417 15.7675 -2.66993 -7.31012 1.72795 1.21174 7.44249 2.59028 -6.93919 -15.9963 -4.64536 16.0739 29.1473 -11.8578 -95.056 10.9978 3.32253 14.4801 -4.53242 -29.238 -0.992253 -9.64602 -2.93828 95.5601 2.88458 -7.00805 -13.4399 -3.13719 21.9974 1.24912 9.86409 -0.814706 1.56661 -21.8802 -1.15641 0.86415 53.5028 -1.09645 0.515536 -24.3822 -0.36347 -8.73826e-023 0 -4.96962e-017 5.91701 -18.4048 -1.18708 -0.232653 50.2021 0.40074 -4.36403 -24.0799 -6.63879 -1.86361e-017 9.93923e-017 -7.95139e-016 
0.962913 83.9592 16.8456 -2.58283 -6.47397 0.869027 1.65054 5.74063 2.47917 -6.87263 -16.768 -4.38249 15.4929 29.8609 -11.2443 -94.8858 12.2972 3.55669 14.5084 -4.54655 -29.3091 -0.980902 -7.59208 -2.92159 94.9101 2.11861 -6.93495 -13.2239 -3.04492 21.6464 1.09424 5.92657 -0.752121 0.79458 -18.7662 -2.56654 0.810951 48.3159 -1.06481 0.701054 -23.001 0.986225 -2.81482e-017 -1.2424e-017 5.96354e-016 6.0712 -15.1678 0.0812991 -0.319766 44.5362 0.58894 -3.98265 -22.6177 -6.10435 7.60973e-017 0 -0 
0.983271 85.0517 17.7992 -1.8475 -5.44419 0.291288 1.36617 4.17598 2.13227 -6.70247 -16.8654 -4.18661 14.8748 29.0976 -10.4573 -93.8282 14.8224 4.27911 14.6777 -4.8122 -29.9769 -0.809679 -4.5588 -2.7567 94.0947 3.57043 -7.15138 -13.3267 -3.1695 22.0044 0.927603 4.07021 -0.687329 -0.130291 -16.4163 -2.9845 0.711599 43.7185 -1.01801 0.613428 -21.5528 1.38316 9.31803e-018 -4.96962e-017 -0 5.07498 -13.0011 0.453353 -0.330219 40.0392 0.687643 -3.46729 -21.6519 -4.78244 -1.63066e-017 -2.48481e-017 -0 
0.888478 85.7599 18.5625 -1.8649 -4.54572 -0.764708 1.74943 3.17019 1.85532 -6.29453 -17.5284 -3.91503 13.9587 28.8488 -9.48119 -92.3491 17.8331 5.15328 15.0602 -5.24073 -31.1558 -0.713591 -1.92951 -2.63519 92.9709 7.21532 -6.90587 -13.4903 -3.30346 22.4363 0.921142 4.16582 -0.670469 0.409613 -14.9288 -1.96351 0.615967 40.4928 -0.970675 0.435536 -20.6092 1.06787 -1.2424e-017 9.93923e-017 -0 5.13757 -11.6061 1.18073 -0.307413 36.5767 0.74598 -3.09689 -20.729 -3.82567 7.76503e-018 0 -1.98785e-016 
0.792696 86.1567 19.1513 -1.76757 -3.83869 -1.61378 2.03439 2.82125 1.63013 -6.21252 -18.0887 -3.90713 13.378 28.2145 -9.05479 -90.6679 19.8955 5.44303 15.3048 -5.57253 -32.0277 -0.643299 1.32569 -2.46472 91.6455 10.1919 -6.128 -13.6084 -3.42707 22.7709 0.849262 5.59496 -0.562002 0.804296 -13.5448 -0.951453 0.537435 37.9508 -0.923551 0.311864 -20.331 0.627238 -3.41661e-017 2.48481e-017 3.97569e-016 5.07245 -10.8247 1.77029 -0.28418 34.6105 0.750854 -3.04003 -20.4405 -3.10122 1.70831e-017 0 -0 
